<svg width="32" height="32" viewBox="0 0 32 32" fill="none" xmlns="http://www.w3.org/2000/svg">
<path d="M16 0C7.16354 0 0 7.16354 0 16C0 24.8365 7.16354 32 16 32C24.8365 32 32 24.8365 32 16C31.9901 7.16771 24.8323 0.00989587 16 0ZM16 30.9333C7.7526 30.9333 1.06667 24.2474 1.06667 16C1.06667 7.7526 7.7526 1.06667 16 1.06667C24.2474 1.06667 30.9333 7.7526 30.9333 16C30.924 24.2435 24.2435 30.924 16 30.9333Z" fill="white"/>
<g clip-path="url(#clip0)">
<path d="M16.003 11.3785C13.4508 11.3785 11.3845 13.447 11.3845 15.997C11.3845 18.5492 13.453 20.6155 16.003 20.6155C18.5553 20.6155 20.6215 18.547 20.6215 15.997C20.6215 13.4447 18.553 11.3785 16.003 11.3785V11.3785ZM16.003 18.9947C14.3463 18.9947 13.0053 17.653 13.0053 15.997C13.0053 14.341 14.347 12.9992 16.003 12.9992C17.659 12.9992 19.0008 14.341 19.0008 15.997C19.0015 17.653 17.6598 18.9947 16.003 18.9947V18.9947Z" fill="white"/>
<path d="M19.7106 7.05759C18.0546 6.98034 13.9529 6.98409 12.2954 7.05759C10.8389 7.12584 9.55412 7.47759 8.51837 8.51334C6.78737 10.2443 7.00862 12.5768 7.00862 15.9976C7.00862 19.4986 6.81362 21.7771 8.51837 23.4818C10.2561 25.2188 12.6224 24.9916 16.0026 24.9916C19.4706 24.9916 20.6676 24.9938 21.8939 24.5191C23.5611 23.8718 24.8196 22.3816 24.9426 19.7048C25.0206 18.0481 25.0161 13.9471 24.9426 12.2896C24.7941 9.12984 23.0984 7.21359 19.7106 7.05759V7.05759ZM22.3319 22.3366C21.1971 23.4713 19.6229 23.3701 15.9809 23.3701C12.2309 23.3701 10.7271 23.4256 9.62987 22.3253C8.36612 21.0676 8.59487 19.0478 8.59487 15.9856C8.59487 11.8418 8.16962 8.85759 12.3284 8.64459C13.2839 8.61084 13.5651 8.59959 15.9704 8.59959L16.0041 8.62209C20.0009 8.62209 23.1366 8.20359 23.3249 12.3616C23.3676 13.3103 23.3774 13.5953 23.3774 15.9968C23.3766 19.7033 23.4471 21.2161 22.3319 22.3366V22.3366Z" fill="white"/>
<path d="M20.8045 12.2755C21.4006 12.2755 21.8838 11.7923 21.8838 11.1963C21.8838 10.6002 21.4006 10.117 20.8045 10.117C20.2085 10.117 19.7253 10.6002 19.7253 11.1963C19.7253 11.7923 20.2085 12.2755 20.8045 12.2755Z" fill="white"/>
</g>
<defs>
<clipPath id="clip0">
<rect x="7" y="7" width="18" height="18" fill="white"/>
</clipPath>
</defs>
</svg>
